<svg width="41" height="41" viewBox="0 0 41 41" fill="none" xmlns="http://www.w3.org/2000/svg">
<rect width="41" height="41" rx="6" fill="white"/>
<path d="M10.9486 8.728C12.6766 8.728 14.1486 9.016 15.3646 9.592C16.5806 10.168 17.4873 10.9467 18.0846 11.928C18.7033 12.888 19.0126 13.944 19.0126 15.096C19.0126 16.184 18.81 17.1973 18.4046 18.136C18.0206 19.0747 17.2526 20.184 16.1006 21.464C14.97 22.744 13.2846 24.344 11.0446 26.264H19.4606L18.8206 31H3.87663V26.648C6.35129 24.3013 8.17529 22.4987 9.34863 21.24C10.5433 19.9813 11.3753 18.9467 11.8446 18.136C12.314 17.3253 12.5486 16.5467 12.5486 15.8C12.5486 15.0747 12.346 14.5093 11.9406 14.104C11.5353 13.6773 10.97 13.464 10.2446 13.464C9.54063 13.464 8.90063 13.6453 8.32463 14.008C7.76996 14.3493 7.19396 14.8933 6.59663 15.64L2.98062 12.76C3.89796 11.5227 5.02863 10.5413 6.37263 9.816C7.71663 9.09067 9.24196 8.728 10.9486 8.728ZM37.3806 22.04V26.712H35.1406V31H28.9326L28.9006 26.712H19.7806V22.584L25.7646 8.568L31.1726 10.488L26.2766 22.04H28.9646L29.7006 17.304H35.1406V22.04H37.3806Z" fill="black"/>
</svg>
