<?xml version="1.0" encoding="UTF-8"?>
<svg version="1.1" xmlns="http://www.w3.org/2000/svg" width="428" height="428">
<path d="M0 0 C0.74535999 -0.00297112 1.49071998 -0.00594224 2.25866663 -0.0090034 C4.74005247 -0.01762959 7.22138971 -0.01919349 9.70278931 -0.02069092 C11.48902488 -0.0253236 13.27525947 -0.03034886 15.06149292 -0.03573608 C19.90504023 -0.04882338 24.74857369 -0.05529849 29.59213591 -0.05974674 C32.62507148 -0.06268492 35.65800335 -0.06679123 38.69093704 -0.07125092 C48.19981377 -0.08491953 57.70868193 -0.09458788 67.2175678 -0.09845281 C78.15676012 -0.10292458 89.09582694 -0.12043417 100.03498113 -0.1494534 C108.51345201 -0.1711558 116.99188782 -0.18116172 125.47038615 -0.18249393 C130.52289263 -0.18353634 135.57528104 -0.18932241 140.62775803 -0.20731354 C145.39010718 -0.22394164 150.15225139 -0.22587919 154.91461945 -0.21717453 C156.64905221 -0.21641182 158.38349668 -0.22064376 160.11790085 -0.23063278 C195.24925215 -0.42086717 229.15721751 11.91466895 254.62319946 36.50372314 C255.9419104 37.80889893 255.9419104 37.80889893 257.28726196 39.14044189 C258.5750354 40.33733643 258.5750354 40.33733643 259.88882446 41.55841064 C282.06284964 62.59970698 297.32784727 95.22231998 298.41868973 125.82788658 C298.42668763 127.16963056 298.42940372 128.51141319 298.42770386 129.85317993 C298.43216054 130.97121992 298.43216054 130.97121992 298.43670726 132.11184657 C298.44533345 134.5932324 298.44689735 137.07456964 298.44839478 139.55596924 C298.45302746 141.34220481 298.45805272 143.1284394 298.46343994 144.91467285 C298.47652724 149.75822016 298.48300235 154.60175362 298.4874506 159.44531584 C298.49038878 162.47825142 298.49449509 165.51118328 298.49895477 168.54411697 C298.51262339 178.05299371 298.52229174 187.56186186 298.52615666 197.07074773 C298.53062844 208.00994006 298.54813802 218.94900687 298.57715726 229.88816106 C298.59885966 238.36663194 298.60886558 246.84506775 298.61019778 255.32356608 C298.6112402 260.37607256 298.61702627 265.42846097 298.6350174 270.48093796 C298.6516455 275.24328711 298.65358305 280.00543132 298.64487839 284.76779938 C298.64411568 286.50223215 298.64834762 288.23667661 298.65833664 289.97108078 C298.84857103 325.10243208 286.51303491 359.01039744 261.92398071 384.47637939 C260.61880493 385.79509033 260.61880493 385.79509033 259.28726196 387.14044189 C258.48933228 387.99895752 257.69140259 388.85747314 256.86929321 389.74200439 C235.82799688 411.91602957 203.20538387 427.18102721 172.59981728 428.27186966 C171.2580733 428.27986756 169.91629066 428.28258365 168.57452393 428.28088379 C167.82916394 428.28385491 167.08380395 428.28682603 166.31585729 428.28988719 C163.83447146 428.29851338 161.35313422 428.30007728 158.87173462 428.30157471 C157.08549905 428.30620739 155.29926446 428.31123265 153.51303101 428.31661987 C148.6694837 428.32970717 143.82595024 428.33618228 138.98238802 428.34063053 C135.94945244 428.34356871 132.91652058 428.34767502 129.88358688 428.3521347 C120.37471015 428.36580332 110.865842 428.37547167 101.35695612 428.3793366 C90.4177638 428.38380837 79.47869698 428.40131796 68.53954279 428.43033719 C60.06107191 428.45203959 51.58263611 428.46204551 43.10413778 428.46337771 C38.0516313 428.46442013 32.99924288 428.4702062 27.9467659 428.48819733 C23.18441675 428.50482543 18.42227253 428.50676298 13.65990448 428.49805832 C11.92547171 428.49729561 10.19102725 428.50152755 8.45662308 428.51151657 C-26.67472822 428.70175096 -60.58269359 416.36621484 -86.04867554 391.77716064 C-86.92781616 390.90704346 -87.80695679 390.03692627 -88.71273804 389.14044189 C-89.57125366 388.34251221 -90.42976929 387.54458252 -91.31430054 386.72247314 C-113.48832571 365.68117681 -128.75332335 333.0585638 -129.8441658 302.45299721 C-129.8521637 301.11125323 -129.85487979 299.7694706 -129.85317993 298.42770386 C-129.85615105 297.68234387 -129.85912218 296.93698388 -129.86218333 296.16903722 C-129.87080952 293.68765139 -129.87237343 291.20631415 -129.87387085 288.72491455 C-129.87850353 286.93867898 -129.8835288 285.15244439 -129.88891602 283.36621094 C-129.90200331 278.52266363 -129.90847843 273.67913017 -129.91292667 268.83556795 C-129.91586485 265.80263237 -129.91997116 262.76970051 -129.92443085 259.73676682 C-129.93809946 250.22789008 -129.94776782 240.71902193 -129.95163274 231.21013606 C-129.95610451 220.27094373 -129.9736141 209.33187692 -130.00263333 198.39272273 C-130.02433573 189.91425184 -130.03434165 181.43581604 -130.03567386 172.95731771 C-130.03671627 167.90481123 -130.04250235 162.85242281 -130.06049347 157.79994583 C-130.07712157 153.03759668 -130.07905912 148.27545247 -130.07035446 143.51308441 C-130.06959176 141.77865164 -130.07382369 140.04420718 -130.08381271 138.30980301 C-130.2740471 103.17845171 -117.93851098 69.27048634 -93.34945679 43.80450439 C-92.4793396 42.92536377 -91.60922241 42.04622314 -90.71273804 41.14044189 C-89.91480835 40.28192627 -89.11687866 39.42341064 -88.29476929 38.53887939 C-66.29756017 15.3574812 -31.99853538 -0.04053837 0 0 Z " fill="#0A3149" transform="translate(129.71273803710938,-0.14044189453125)"/>
<path d="M0 0 C1.69363711 0.99219328 3.38728394 1.98437038 5.08146667 2.97563171 C6.24627832 3.65768287 7.41051164 4.34072262 8.57417297 5.0247345 C12.6824962 7.43783413 16.81313071 9.80876035 20.95703125 12.16015625 C22.11775492 12.82098732 23.27840034 13.48195584 24.43896484 14.14306641 C26.6178141 15.38276194 28.79897463 16.61840801 30.98291016 17.84912109 C47.43384738 27.25531054 60.52023005 37.90187287 65.93251038 56.82177734 C66.92097731 60.89154859 67.17734147 64.85338967 67.18139648 69.03125 C67.18972 69.7772496 67.19804352 70.52324921 67.20661926 71.29185486 C67.23053303 73.73629123 67.23947115 76.18045937 67.24609375 78.625 C67.25507871 80.34643626 67.26420084 82.0678718 67.27345276 83.78930664 C67.28989811 87.39357386 67.29763392 90.99774875 67.30053711 94.60205078 C67.30589664 99.1765593 67.34349461 103.75017461 67.38928127 108.32443237 C67.41932491 111.88168335 67.42626662 115.43872706 67.42726326 118.99609375 C67.43141664 120.67989158 67.44364937 122.36369293 67.46478081 124.04736328 C67.67107861 141.91524572 63.92734533 157.71935903 51.2265625 171.07421875 C47.06362313 175.15913592 42.61230232 178.06462128 37.5625 180.9375 C36.69584717 181.44394043 35.82919434 181.95038086 34.9362793 182.47216797 C32.25587066 184.03499073 29.566155 185.58077316 26.875 187.125 C25.23117168 188.07839477 23.58792348 189.03279064 21.9453125 189.98828125 C18.79580645 191.81847779 15.64173143 193.64041592 12.484375 195.45703125 C8.67342146 197.65435953 4.88929608 199.89394364 1.11035156 202.14575195 C-16.46456485 212.59394102 -32.78563945 220.98736635 -53.6875 216.125 C-66.47039721 211.97971659 -78.16585103 204.47658942 -89.62597656 197.60986328 C-92.45615413 195.9282357 -95.30076642 194.2729218 -98.1484375 192.62109375 C-99.72431641 191.70674561 -99.72431641 191.70674561 -101.33203125 190.77392578 C-103.38336108 189.58479947 -105.43539941 188.39689417 -107.48828125 187.21044922 C-121.75168134 178.9228394 -133.14101335 171.95240378 -141.125 157.125 C-141.516875 156.444375 -141.90875 155.76375 -142.3125 155.0625 C-147.95975071 144.76457223 -147.43700491 133.3562905 -147.42578125 121.9453125 C-147.42967751 120.28441259 -147.43401406 118.62351365 -147.43876648 116.96261597 C-147.44619238 113.49473835 -147.44596396 110.02696261 -147.44067383 106.55908203 C-147.43488436 102.14587924 -147.45181525 97.73309685 -147.4750185 93.31996346 C-147.48985032 89.89327616 -147.49061478 86.46668793 -147.48750877 83.03997421 C-147.48801726 81.41430708 -147.49316471 79.78863369 -147.50332069 78.1629982 C-147.60221591 60.12255927 -144.14856818 46.43753931 -131.95703125 32.70703125 C-123.86423447 25.32863308 -114.58269811 19.87749022 -105.0625 14.5625 C-103.22467327 13.52725296 -101.38811532 12.48977833 -99.55158997 11.45222473 C-98.29682078 10.74357334 -97.04160061 10.03571989 -95.78593445 9.32865906 C-91.42656567 6.87150397 -87.09005927 4.37745123 -82.765625 1.859375 C-81.88161766 1.34534874 -81.88161766 1.34534874 -80.97975159 0.82093811 C-78.17220277 -0.81206202 -75.36678453 -2.44856431 -72.56420898 -4.09008789 C-46.67957792 -19.12648519 -25.00329772 -14.81640956 0 0 Z " fill="#55FAB0" transform="translate(254.125,112.875)"/>
<path d="M0 0 C12.60699383 8.54894861 21.58695103 20.29858907 25.3125 35.17578125 C27.51010989 49.24459222 25.37292304 63.46420709 17.48046875 75.48046875 C8.38600202 87.80265916 -3.72546509 97.48231025 -19.26953125 99.8515625 C-35.39696784 100.81984363 -47.93662407 98.60473415 -61.26953125 88.8515625 C-62.25566406 88.14193359 -62.25566406 88.14193359 -63.26171875 87.41796875 C-73.22826397 79.59976772 -77.3829375 68.51134375 -81.26953125 56.8515625 C-82.1687687 45.74815052 -82.73833011 33.84393573 -77.26953125 23.8515625 C-76.810625 22.9853125 -76.35171875 22.1190625 -75.87890625 21.2265625 C-67.88859512 7.09632809 -56.11235939 -2.22527616 -40.34936523 -6.69262695 C-26.88277162 -9.64392761 -11.73961298 -6.87775306 0 0 Z " fill="#0A3249" transform="translate(242.26953125,168.1484375)"/>
</svg>
