<svg width="128" height="41" viewBox="0 0 128 41" fill="none" xmlns="http://www.w3.org/2000/svg">
<rect x="87" width="41" height="41" rx="6" fill="black"/>
<path d="M97.9486 8.728C99.6766 8.728 101.149 9.016 102.365 9.592C103.581 10.168 104.487 10.9467 105.085 11.928C105.703 12.888 106.013 13.944 106.013 15.096C106.013 16.184 105.81 17.1973 105.405 18.136C105.021 19.0747 104.253 20.184 103.101 21.464C101.97 22.744 100.285 24.344 98.0446 26.264H106.461L105.821 31H90.8766V26.648C93.3513 24.3013 95.1753 22.4987 96.3486 21.24C97.5433 19.9813 98.3753 18.9467 98.8446 18.136C99.314 17.3253 99.5486 16.5467 99.5486 15.8C99.5486 15.0747 99.346 14.5093 98.9406 14.104C98.5353 13.6773 97.97 13.464 97.2446 13.464C96.5406 13.464 95.9006 13.6453 95.3246 14.008C94.77 14.3493 94.194 14.8933 93.5966 15.64L89.9806 12.76C90.898 11.5227 92.0286 10.5413 93.3726 9.816C94.7166 9.09067 96.242 8.728 97.9486 8.728ZM124.381 22.04V26.712H122.141V31H115.933L115.901 26.712H106.781V22.584L112.765 8.568L118.173 10.488L113.277 22.04H115.965L116.701 17.304H122.141V22.04H124.381Z" fill="white"/>
<path d="M9.72425 8.088C13.1163 8.088 15.8576 9.10133 17.9483 11.128L15.0363 14.552C13.5429 13.3573 11.9536 12.76 10.2683 12.76C9.47892 12.76 8.88158 12.8987 8.47625 13.176C8.07092 13.4533 7.86825 13.848 7.86825 14.36C7.86825 14.744 7.97492 15.064 8.18825 15.32C8.42292 15.5547 8.79625 15.7787 9.30825 15.992C9.84158 16.2053 10.6949 16.504 11.8683 16.888C14.2149 17.6347 15.9003 18.5733 16.9243 19.704C17.9696 20.8347 18.4923 22.3813 18.4923 24.344C18.4923 25.7733 18.1083 27.0427 17.3403 28.152C16.5936 29.24 15.5163 30.0933 14.1083 30.712C12.7003 31.3307 11.0363 31.64 9.11625 31.64C7.15358 31.64 5.42558 31.3307 3.93225 30.712C2.43892 30.0933 1.18025 29.2827 0.15625 28.28L3.38825 24.728C5.07358 26.1787 6.89758 26.904 8.86025 26.904C9.77758 26.904 10.4709 26.7227 10.9403 26.36C11.4096 25.976 11.6443 25.4853 11.6443 24.888C11.6443 24.44 11.5376 24.0667 11.3243 23.768C11.1323 23.4693 10.7803 23.192 10.2683 22.936C9.75625 22.68 9.00958 22.4027 8.02825 22.104C5.44692 21.2933 3.64425 20.3227 2.62025 19.192C1.59625 18.04 1.08425 16.6107 1.08425 14.904C1.08425 13.5173 1.45758 12.312 2.20425 11.288C2.95092 10.264 3.97492 9.47467 5.27625 8.92C6.59892 8.36533 8.08158 8.088 9.72425 8.088ZM32.2808 30.168C31.6194 30.6373 30.8088 31 29.8488 31.256C28.9101 31.512 28.0141 31.64 27.1608 31.64C25.0488 31.6187 23.4808 31.032 22.4568 29.88C21.4541 28.7067 20.9528 26.9787 20.9528 24.696V18.2H18.9047V13.912H20.9528V10.328L27.2888 9.592V13.912H31.1288L30.4888 18.2H27.2888V24.632C27.2888 25.3787 27.4061 25.912 27.6408 26.232C27.8754 26.5307 28.2061 26.68 28.6328 26.68C29.1661 26.68 29.6994 26.5307 30.2328 26.232L32.2808 30.168ZM40.5315 13.272C43.2622 13.272 45.4062 14.072 46.9635 15.672C48.5422 17.272 49.3315 19.544 49.3315 22.488C49.3315 24.3227 48.9688 25.9333 48.2435 27.32C47.5395 28.7067 46.5262 29.7733 45.2035 30.52C43.8808 31.2667 42.3235 31.64 40.5315 31.64C37.8008 31.64 35.6462 30.84 34.0675 29.24C32.5102 27.64 31.7315 25.368 31.7315 22.424C31.7315 20.5893 32.0835 18.9787 32.7875 17.592C33.5128 16.2053 34.5368 15.1387 35.8595 14.392C37.1822 13.6453 38.7395 13.272 40.5315 13.272ZM40.5315 17.816C39.7208 17.816 39.1342 18.1787 38.7715 18.904C38.4088 19.6293 38.2275 20.8027 38.2275 22.424C38.2275 24.1093 38.4088 25.3147 38.7715 26.04C39.1342 26.744 39.7208 27.096 40.5315 27.096C41.3422 27.096 41.9288 26.7333 42.2915 26.008C42.6542 25.2827 42.8355 24.1093 42.8355 22.488C42.8355 20.8027 42.6542 19.608 42.2915 18.904C41.9288 18.1787 41.3422 17.816 40.5315 17.816ZM61.587 13.368C62.1417 13.368 62.7177 13.464 63.315 13.656L62.323 19.768C61.747 19.5973 61.2243 19.512 60.755 19.512C59.8163 19.512 59.1123 19.8213 58.643 20.44C58.195 21.0587 57.8323 21.9867 57.555 23.224V31H51.219V13.912H56.755L57.267 17.112C57.6297 15.9813 58.2057 15.0747 58.995 14.392C59.7843 13.7093 60.6483 13.368 61.587 13.368ZM79.4713 22.232C79.4713 22.7653 79.4286 23.4373 79.3433 24.248H68.9753C69.1459 25.4 69.4979 26.1787 70.0312 26.584C70.5859 26.968 71.3753 27.16 72.3993 27.16C72.9966 27.16 73.6046 27.0427 74.2233 26.808C74.8419 26.552 75.5246 26.168 76.2713 25.656L78.8313 29.112C76.7619 30.7973 74.4153 31.64 71.7913 31.64C68.7619 31.64 66.4686 30.808 64.9113 29.144C63.3539 27.4587 62.5753 25.24 62.5753 22.488C62.5753 20.7813 62.8953 19.2347 63.5353 17.848C64.1966 16.44 65.1673 15.3307 66.4473 14.52C67.7273 13.688 69.2739 13.272 71.0873 13.272C72.7726 13.272 74.2446 13.624 75.5033 14.328C76.7619 15.032 77.7326 16.056 78.4153 17.4C79.1193 18.744 79.4713 20.3547 79.4713 22.232ZM73.2313 20.44C73.2099 19.4373 73.0499 18.6587 72.7513 18.104C72.4739 17.5493 71.9619 17.272 71.2153 17.272C70.5113 17.272 69.9779 17.5173 69.6153 18.008C69.2739 18.4987 69.0499 19.384 68.9433 20.664H73.2313V20.44Z" fill="black"/>
</svg>
