<svg width="116" height="42" viewBox="0 0 116 42" fill="none" xmlns="http://www.w3.org/2000/svg">
<path d="M29.295 8.745L25.235 33H17.78L14.77 14.485L11.585 33H4.305L0.315 8.745H6.055L8.47 28.66L11.83 8.745H17.85L21 28.66L23.835 8.745H29.295ZM47.667 23.34C47.667 24.11 47.632 24.775 47.562 25.335H36.047C36.2337 26.8983 36.677 27.995 37.377 28.625C38.077 29.255 39.0453 29.57 40.282 29.57C41.0287 29.57 41.752 29.4417 42.452 29.185C43.152 28.905 43.9103 28.485 44.727 27.925L47.002 31.005C44.832 32.7317 42.417 33.595 39.757 33.595C36.747 33.595 34.437 32.7083 32.827 30.935C31.217 29.1617 30.412 26.7817 30.412 23.795C30.412 21.905 30.7503 20.2133 31.427 18.72C32.1037 17.2033 33.0953 16.0133 34.402 15.15C35.7087 14.2633 37.272 13.82 39.092 13.82C41.7753 13.82 43.8753 14.66 45.392 16.34C46.9087 18.02 47.667 20.3533 47.667 23.34ZM42.242 21.765C42.1953 18.9183 41.192 17.495 39.232 17.495C38.2753 17.495 37.5287 17.845 36.992 18.545C36.4787 19.245 36.1637 20.4 36.047 22.01H42.242V21.765ZM61.3085 13.82C63.5252 13.82 65.2285 14.695 66.4185 16.445C67.6085 18.1717 68.2035 20.5983 68.2035 23.725C68.2035 25.6383 67.9002 27.3417 67.2935 28.835C66.7102 30.3283 65.8585 31.495 64.7385 32.335C63.6419 33.175 62.3352 33.595 60.8185 33.595C59.8152 33.595 58.8935 33.385 58.0535 32.965C57.2368 32.545 56.5368 31.9617 55.9535 31.215L55.6735 33H50.7735V7.03L56.3035 6.435V16.305C56.8635 15.535 57.5752 14.9283 58.4385 14.485C59.3252 14.0417 60.2818 13.82 61.3085 13.82ZM59.2085 29.57C61.3785 29.57 62.4635 27.6217 62.4635 23.725C62.4635 21.5083 62.2068 19.98 61.6935 19.14C61.1802 18.3 60.4335 17.88 59.4535 17.88C58.2168 17.88 57.1668 18.6033 56.3035 20.05V27.785C56.6535 28.345 57.0735 28.7883 57.5635 29.115C58.0768 29.4183 58.6252 29.57 59.2085 29.57Z" fill="black"/>
<g clip-path="url(#clip0_5_3)">
<path d="M110 1H81C77.6863 1 75 3.68629 75 7V36C75 39.3137 77.6863 42 81 42H110C113.314 42 116 39.3137 116 36V7C116 3.68629 113.314 1 110 1Z" fill="black"/>
<path d="M85.9486 9.72799C87.6766 9.72799 89.1486 10.016 90.3646 10.592C91.5806 11.168 92.4873 11.9467 93.0846 12.928C93.7033 13.888 94.0126 14.944 94.0126 16.096C94.0126 17.184 93.81 18.1973 93.4046 19.136C93.0206 20.0747 92.2526 21.184 91.1006 22.464C89.97 23.744 88.2846 25.344 86.0446 27.264H94.4606L93.8206 32H78.8766V27.648C81.3513 25.3013 83.1753 23.4987 84.3486 22.24C85.5433 20.9813 86.3753 19.9467 86.8446 19.136C87.314 18.3253 87.5486 17.5467 87.5486 16.8C87.5486 16.0747 87.346 15.5093 86.9406 15.104C86.5353 14.6773 85.97 14.464 85.2446 14.464C84.5406 14.464 83.9006 14.6453 83.3246 15.008C82.7699 15.3493 82.1939 15.8933 81.5966 16.64L77.9806 13.76C78.8979 12.5227 80.0286 11.5413 81.3726 10.816C82.7166 10.0907 84.2419 9.72799 85.9486 9.72799ZM112.381 23.04V27.712H110.141V32H103.933L103.901 27.712H94.7806V23.584L100.765 9.56799L106.173 11.488L101.277 23.04H103.965L104.701 18.304H110.141V23.04H112.381Z" fill="white"/>
</g>
<defs>
<clipPath id="clip0_5_3">
<rect width="41" height="41" fill="white" transform="translate(75 1)"/>
</clipPath>
</defs>
</svg>
