<svg width="116" height="42" viewBox="0 0 116 42" fill="none" xmlns="http://www.w3.org/2000/svg">
<g clip-path="url(#clip0_9_12)">
<path d="M29.295 8.745L25.235 33H17.78L14.77 14.485L11.585 33H4.305L0.315 8.745H6.055L8.47 28.66L11.83 8.745H17.85L21 28.66L23.835 8.745H29.295ZM47.667 23.34C47.667 24.11 47.632 24.775 47.562 25.335H36.047C36.2337 26.8983 36.677 27.995 37.377 28.625C38.077 29.255 39.0453 29.57 40.282 29.57C41.0287 29.57 41.752 29.4417 42.452 29.185C43.152 28.905 43.9103 28.485 44.727 27.925L47.002 31.005C44.832 32.7317 42.417 33.595 39.757 33.595C36.747 33.595 34.437 32.7083 32.827 30.935C31.217 29.1617 30.412 26.7817 30.412 23.795C30.412 21.905 30.7503 20.2133 31.427 18.72C32.1037 17.2033 33.0953 16.0133 34.402 15.15C35.7087 14.2633 37.272 13.82 39.092 13.82C41.7753 13.82 43.8753 14.66 45.392 16.34C46.9087 18.02 47.667 20.3533 47.667 23.34ZM42.242 21.765C42.1953 18.9183 41.192 17.495 39.232 17.495C38.2753 17.495 37.5287 17.845 36.992 18.545C36.4787 19.245 36.1637 20.4 36.047 22.01H42.242V21.765ZM61.3085 13.82C63.5252 13.82 65.2285 14.695 66.4185 16.445C67.6085 18.1717 68.2035 20.5983 68.2035 23.725C68.2035 25.6383 67.9002 27.3417 67.2935 28.835C66.7102 30.3283 65.8585 31.495 64.7385 32.335C63.6419 33.175 62.3352 33.595 60.8185 33.595C59.8152 33.595 58.8935 33.385 58.0535 32.965C57.2368 32.545 56.5368 31.9617 55.9535 31.215L55.6735 33H50.7735V7.03L56.3035 6.435V16.305C56.8635 15.535 57.5752 14.9283 58.4385 14.485C59.3252 14.0417 60.2818 13.82 61.3085 13.82ZM59.2085 29.57C61.3785 29.57 62.4635 27.6217 62.4635 23.725C62.4635 21.5083 62.2068 19.98 61.6935 19.14C61.1802 18.3 60.4335 17.88 59.4535 17.88C58.2168 17.88 57.1668 18.6033 56.3035 20.05V27.785C56.6535 28.345 57.0735 28.7883 57.5635 29.115C58.0768 29.4183 58.6252 29.57 59.2085 29.57Z" fill="white"/>
<g clip-path="url(#clip1_9_12)">
<path d="M110 0.5H81C77.6863 0.5 75 3.18629 75 6.5V35.5C75 38.8137 77.6863 41.5 81 41.5H110C113.314 41.5 116 38.8137 116 35.5V6.5C116 3.18629 113.314 0.5 110 0.5Z" fill="white"/>
<path d="M110 0.5H81C77.6863 0.5 75 3.18629 75 6.5V35.5C75 38.8137 77.6863 41.5 81 41.5H110C113.314 41.5 116 38.8137 116 35.5V6.5C116 3.18629 113.314 0.5 110 0.5Z" fill="white"/>
<path d="M85.9486 9.22799C87.6766 9.22799 89.1486 9.51599 90.3646 10.092C91.5806 10.668 92.4873 11.4467 93.0846 12.428C93.7033 13.388 94.0126 14.444 94.0126 15.596C94.0126 16.684 93.81 17.6973 93.4046 18.636C93.0206 19.5747 92.2526 20.684 91.1006 21.964C89.97 23.244 88.2846 24.844 86.0446 26.764H94.4606L93.8206 31.5H78.8766V27.148C81.3513 24.8013 83.1753 22.9987 84.3486 21.74C85.5433 20.4813 86.3753 19.4467 86.8446 18.636C87.314 17.8253 87.5486 17.0467 87.5486 16.3C87.5486 15.5747 87.346 15.0093 86.9406 14.604C86.5353 14.1773 85.97 13.964 85.2446 13.964C84.5406 13.964 83.9006 14.1453 83.3246 14.508C82.7699 14.8493 82.1939 15.3933 81.5966 16.14L77.9806 13.26C78.8979 12.0227 80.0286 11.0413 81.3726 10.316C82.7166 9.59066 84.2419 9.22799 85.9486 9.22799ZM112.381 22.54V27.212H110.141V31.5H103.933L103.901 27.212H94.7806V23.084L100.765 9.06799L106.173 10.988L101.277 22.54H103.965L104.701 17.804H110.141V22.54H112.381Z" fill="black"/>
</g>
</g>
<defs>
<clipPath id="clip0_9_12">
<rect width="116" height="42" fill="white"/>
</clipPath>
<clipPath id="clip1_9_12">
<rect width="41" height="41" fill="white" transform="translate(75 0.5)"/>
</clipPath>
</defs>
</svg>
