<svg width="465" height="85" viewBox="0 0 465 85" fill="none" xmlns="http://www.w3.org/2000/svg">
<path d="M40 8L72 40L56 56L40 40V72L8 40L40 8Z" stroke="#6135FF" stroke-width="10"/>
<path d="M141.812 58.4688C139.729 60.2396 137.406 61.6042 134.844 62.5625C132.281 63.5 129.615 63.9688 126.844 63.9688C124.719 63.9688 122.667 63.6875 120.688 63.125C118.729 62.5833 116.896 61.8125 115.188 60.8125C113.479 59.7917 111.917 58.5833 110.5 57.1875C109.083 55.7708 107.875 54.2083 106.875 52.5C105.875 50.7708 105.094 48.9167 104.531 46.9375C103.99 44.9583 103.719 42.9062 103.719 40.7812C103.719 38.6562 103.99 36.6146 104.531 34.6562C105.094 32.6979 105.875 30.8646 106.875 29.1562C107.875 27.4271 109.083 25.8646 110.5 24.4688C111.917 23.0521 113.479 21.8438 115.188 20.8438C116.896 19.8438 118.729 19.0729 120.688 18.5312C122.667 17.9688 124.719 17.6875 126.844 17.6875C129.615 17.6875 132.281 18.1667 134.844 19.125C137.406 20.0625 139.729 21.4167 141.812 23.1875L137.125 31C135.771 29.625 134.208 28.5521 132.438 27.7812C130.667 26.9896 128.802 26.5938 126.844 26.5938C124.885 26.5938 123.042 26.9688 121.312 27.7188C119.604 28.4688 118.104 29.4896 116.812 30.7812C115.521 32.0521 114.5 33.5521 113.75 35.2812C113 36.9896 112.625 38.8229 112.625 40.7812C112.625 42.7604 113 44.6146 113.75 46.3438C114.5 48.0729 115.521 49.5833 116.812 50.875C118.104 52.1667 119.604 53.1875 121.312 53.9375C123.042 54.6875 124.885 55.0625 126.844 55.0625C127.969 55.0625 129.062 54.9271 130.125 54.6562C131.188 54.3854 132.198 54.0104 133.156 53.5312V40.7812H141.812V58.4688ZM180.156 45.9688C180.156 48.4688 179.708 50.8021 178.812 52.9688C177.917 55.1146 176.698 56.9792 175.156 58.5625C173.615 60.125 171.802 61.3646 169.719 62.2812C167.656 63.1771 165.438 63.625 163.062 63.625C160.708 63.625 158.49 63.1771 156.406 62.2812C154.344 61.3646 152.531 60.125 150.969 58.5625C149.427 56.9792 148.208 55.1146 147.312 52.9688C146.417 50.8021 145.969 48.4688 145.969 45.9688C145.969 43.4271 146.417 41.0729 147.312 38.9062C148.208 36.7396 149.427 34.875 150.969 33.3125C152.531 31.7292 154.344 30.4896 156.406 29.5938C158.49 28.6979 160.708 28.25 163.062 28.25C165.438 28.25 167.656 28.6771 169.719 29.5312C171.802 30.3646 173.615 31.5625 175.156 33.125C176.698 34.6667 177.917 36.5312 178.812 38.7188C179.708 40.8854 180.156 43.3021 180.156 45.9688ZM171.562 45.9688C171.562 44.5938 171.333 43.3542 170.875 42.25C170.438 41.125 169.833 40.1667 169.062 39.375C168.292 38.5625 167.385 37.9479 166.344 37.5312C165.323 37.0938 164.229 36.875 163.062 36.875C161.896 36.875 160.792 37.0938 159.75 37.5312C158.729 37.9479 157.833 38.5625 157.062 39.375C156.312 40.1667 155.719 41.125 155.281 42.25C154.844 43.3542 154.625 44.5938 154.625 45.9688C154.625 47.2604 154.844 48.4583 155.281 49.5625C155.719 50.6667 156.312 51.625 157.062 52.4375C157.833 53.25 158.729 53.8958 159.75 54.375C160.792 54.8333 161.896 55.0625 163.062 55.0625C164.229 55.0625 165.323 54.8438 166.344 54.4062C167.385 53.9688 168.292 53.3542 169.062 52.5625C169.833 51.7708 170.438 50.8125 170.875 49.6875C171.333 48.5625 171.562 47.3229 171.562 45.9688ZM194.938 20.4375C194.938 21.2292 194.781 21.9688 194.469 22.6562C194.177 23.3438 193.771 23.9479 193.25 24.4688C192.729 24.9688 192.115 25.375 191.406 25.6875C190.719 25.9792 189.979 26.125 189.188 26.125C188.396 26.125 187.646 25.9792 186.938 25.6875C186.25 25.375 185.646 24.9688 185.125 24.4688C184.625 23.9479 184.219 23.3438 183.906 22.6562C183.615 21.9688 183.469 21.2292 183.469 20.4375C183.469 19.6667 183.615 18.9375 183.906 18.25C184.219 17.5417 184.625 16.9375 185.125 16.4375C185.646 15.9167 186.25 15.5104 186.938 15.2188C187.646 14.9062 188.396 14.75 189.188 14.75C189.979 14.75 190.719 14.9062 191.406 15.2188C192.115 15.5104 192.729 15.9167 193.25 16.4375C193.771 16.9375 194.177 17.5417 194.469 18.25C194.781 18.9375 194.938 19.6667 194.938 20.4375ZM193.469 63H184.875V29.5312H193.469V63ZM208.531 63H200V29.5312H202.062L204.875 32.7812C206.25 31.5312 207.802 30.5729 209.531 29.9062C211.281 29.2188 213.104 28.875 215 28.875C217.042 28.875 218.969 29.2708 220.781 30.0625C222.594 30.8333 224.177 31.9062 225.531 33.2812C226.885 34.6354 227.948 36.2292 228.719 38.0625C229.51 39.875 229.906 41.8125 229.906 43.875V63H221.375V43.875C221.375 43 221.208 42.1771 220.875 41.4062C220.542 40.6146 220.083 39.9271 219.5 39.3438C218.917 38.7604 218.24 38.3021 217.469 37.9688C216.698 37.6354 215.875 37.4688 215 37.4688C214.104 37.4688 213.26 37.6354 212.469 37.9688C211.677 38.3021 210.99 38.7604 210.406 39.3438C209.823 39.9271 209.365 40.6146 209.031 41.4062C208.698 42.1771 208.531 43 208.531 43.875V63ZM259.812 45.9688C259.812 44.8021 259.583 43.6771 259.125 42.5938C258.688 41.4896 258.083 40.5208 257.312 39.6875C256.542 38.8333 255.635 38.1562 254.594 37.6562C253.573 37.1354 252.479 36.875 251.312 36.875C250.146 36.875 249.042 37.0729 248 37.4688C246.979 37.8646 246.083 38.4479 245.312 39.2188C244.562 39.9896 243.969 40.9479 243.531 42.0938C243.094 43.2188 242.875 44.5104 242.875 45.9688C242.875 47.3646 243.094 48.625 243.531 49.75C243.969 50.8542 244.562 51.8021 245.312 52.5938C246.083 53.3854 246.979 54 248 54.4375C249.042 54.8542 250.146 55.0625 251.312 55.0625C252.479 55.0625 253.573 54.8125 254.594 54.3125C255.635 53.7917 256.542 53.1146 257.312 52.2812C258.083 51.4271 258.688 50.4583 259.125 49.375C259.583 48.2708 259.812 47.1354 259.812 45.9688ZM268.406 58.7812C268.406 61.1354 267.958 63.3438 267.062 65.4062C266.167 67.4688 264.938 69.2708 263.375 70.8125C261.833 72.3542 260.021 73.5729 257.938 74.4688C255.875 75.3646 253.667 75.8125 251.312 75.8125L247.031 75.75V67.2188L251.25 67.2812C252.583 67.2812 253.719 67.1042 254.656 66.75C255.594 66.4167 256.385 65.9479 257.031 65.3438C257.677 64.7604 258.188 64.0833 258.562 63.3125C258.958 62.5417 259.271 61.7292 259.5 60.875C259.167 61.4167 258.688 61.8646 258.062 62.2188C257.438 62.5521 256.74 62.8229 255.969 63.0312C255.219 63.2604 254.427 63.4167 253.594 63.5C252.781 63.5833 252.021 63.625 251.312 63.625C248.958 63.625 246.74 63.2188 244.656 62.4062C242.594 61.5938 240.781 60.4375 239.219 58.9375C237.677 57.4167 236.458 55.5625 235.562 53.375C234.667 51.1875 234.219 48.7188 234.219 45.9688C234.219 43.4479 234.667 41.1042 235.562 38.9375C236.458 36.7708 237.677 34.8958 239.219 33.3125C240.781 31.7292 242.594 30.4896 244.656 29.5938C246.74 28.6979 248.958 28.25 251.312 28.25C252.396 28.25 253.469 28.3854 254.531 28.6562C255.594 28.9271 256.625 29.3021 257.625 29.7812C258.625 30.2604 259.573 30.8229 260.469 31.4688C261.385 32.1146 262.24 32.8125 263.031 33.5625L266.344 29.5938H268.406V58.7812Z" fill="white"/>
<path d="M311.75 40.5938C311.75 42.6562 311.479 44.6458 310.938 46.5625C310.417 48.4583 309.667 50.2396 308.688 51.9062C307.708 53.5521 306.542 55.0625 305.188 56.4375C303.833 57.7917 302.323 58.9583 300.656 59.9375C298.99 60.9167 297.198 61.6771 295.281 62.2188C293.385 62.7396 291.406 63 289.344 63H275.844V18.1875H289.344C291.406 18.1875 293.385 18.4583 295.281 19C297.198 19.5208 298.99 20.2708 300.656 21.25C302.323 22.2292 303.833 23.4062 305.188 24.7812C306.542 26.1354 307.708 27.6458 308.688 29.3125C309.667 30.9583 310.417 32.7396 310.938 34.6562C311.479 36.5521 311.75 38.5312 311.75 40.5938ZM302.781 40.5938C302.781 38.7396 302.427 37 301.719 35.375C301.031 33.75 300.073 32.3333 298.844 31.125C297.635 29.8958 296.208 28.9271 294.562 28.2188C292.938 27.5104 291.198 27.1562 289.344 27.1562H284.875V54.0312H289.344C291.198 54.0312 292.938 53.6875 294.562 53C296.208 52.2917 297.635 51.3333 298.844 50.125C300.073 48.8958 301.031 47.4688 301.719 45.8438C302.427 44.1979 302.781 42.4479 302.781 40.5938ZM326.875 20.4375C326.875 21.2292 326.719 21.9688 326.406 22.6562C326.115 23.3438 325.708 23.9479 325.188 24.4688C324.667 24.9688 324.052 25.375 323.344 25.6875C322.656 25.9792 321.917 26.125 321.125 26.125C320.333 26.125 319.583 25.9792 318.875 25.6875C318.188 25.375 317.583 24.9688 317.062 24.4688C316.562 23.9479 316.156 23.3438 315.844 22.6562C315.552 21.9688 315.406 21.2292 315.406 20.4375C315.406 19.6667 315.552 18.9375 315.844 18.25C316.156 17.5417 316.562 16.9375 317.062 16.4375C317.583 15.9167 318.188 15.5104 318.875 15.2188C319.583 14.9062 320.333 14.75 321.125 14.75C321.917 14.75 322.656 14.9062 323.344 15.2188C324.052 15.5104 324.667 15.9167 325.188 16.4375C325.708 16.9375 326.115 17.5417 326.406 18.25C326.719 18.9375 326.875 19.6667 326.875 20.4375ZM325.406 63H316.812V29.5312H325.406V63ZM355.75 45.9688C355.75 44.8021 355.521 43.6771 355.062 42.5938C354.625 41.4896 354.021 40.5208 353.25 39.6875C352.479 38.8333 351.573 38.1562 350.531 37.6562C349.51 37.1354 348.417 36.875 347.25 36.875C346.083 36.875 344.979 37.0729 343.938 37.4688C342.917 37.8646 342.021 38.4479 341.25 39.2188C340.5 39.9896 339.906 40.9479 339.469 42.0938C339.031 43.2188 338.812 44.5104 338.812 45.9688C338.812 47.3646 339.031 48.625 339.469 49.75C339.906 50.8542 340.5 51.8021 341.25 52.5938C342.021 53.3854 342.917 54 343.938 54.4375C344.979 54.8542 346.083 55.0625 347.25 55.0625C348.417 55.0625 349.51 54.8125 350.531 54.3125C351.573 53.7917 352.479 53.1146 353.25 52.2812C354.021 51.4271 354.625 50.4583 355.062 49.375C355.521 48.2708 355.75 47.1354 355.75 45.9688ZM364.344 58.7812C364.344 61.1354 363.896 63.3438 363 65.4062C362.104 67.4688 360.875 69.2708 359.312 70.8125C357.771 72.3542 355.958 73.5729 353.875 74.4688C351.812 75.3646 349.604 75.8125 347.25 75.8125L342.969 75.75V67.2188L347.188 67.2812C348.521 67.2812 349.656 67.1042 350.594 66.75C351.531 66.4167 352.323 65.9479 352.969 65.3438C353.615 64.7604 354.125 64.0833 354.5 63.3125C354.896 62.5417 355.208 61.7292 355.438 60.875C355.104 61.4167 354.625 61.8646 354 62.2188C353.375 62.5521 352.677 62.8229 351.906 63.0312C351.156 63.2604 350.365 63.4167 349.531 63.5C348.719 63.5833 347.958 63.625 347.25 63.625C344.896 63.625 342.677 63.2188 340.594 62.4062C338.531 61.5938 336.719 60.4375 335.156 58.9375C333.615 57.4167 332.396 55.5625 331.5 53.375C330.604 51.1875 330.156 48.7188 330.156 45.9688C330.156 43.4479 330.604 41.1042 331.5 38.9375C332.396 36.7708 333.615 34.8958 335.156 33.3125C336.719 31.7292 338.531 30.4896 340.594 29.5938C342.677 28.6979 344.896 28.25 347.25 28.25C348.333 28.25 349.406 28.3854 350.469 28.6562C351.531 28.9271 352.562 29.3021 353.562 29.7812C354.562 30.2604 355.51 30.8229 356.406 31.4688C357.323 32.1146 358.177 32.8125 358.969 33.5625L362.281 29.5938H364.344V58.7812ZM380.938 20.4375C380.938 21.2292 380.781 21.9688 380.469 22.6562C380.177 23.3438 379.771 23.9479 379.25 24.4688C378.729 24.9688 378.115 25.375 377.406 25.6875C376.719 25.9792 375.979 26.125 375.188 26.125C374.396 26.125 373.646 25.9792 372.938 25.6875C372.25 25.375 371.646 24.9688 371.125 24.4688C370.625 23.9479 370.219 23.3438 369.906 22.6562C369.615 21.9688 369.469 21.2292 369.469 20.4375C369.469 19.6667 369.615 18.9375 369.906 18.25C370.219 17.5417 370.625 16.9375 371.125 16.4375C371.646 15.9167 372.25 15.5104 372.938 15.2188C373.646 14.9062 374.396 14.75 375.188 14.75C375.979 14.75 376.719 14.9062 377.406 15.2188C378.115 15.5104 378.729 15.9167 379.25 16.4375C379.771 16.9375 380.177 17.5417 380.469 18.25C380.781 18.9375 380.938 19.6667 380.938 20.4375ZM379.469 63H370.875V29.5312H379.469V63ZM402.781 63C400.719 63 398.781 62.6146 396.969 61.8438C395.156 61.0521 393.562 59.9792 392.188 58.625C390.833 57.25 389.76 55.6562 388.969 53.8438C388.198 52.0312 387.812 50.0938 387.812 48.0312V38.0938H383.656V29.5938H387.812V16.2188H396.312V29.5938H409.25V38.0938H396.312V48.0312C396.312 48.9271 396.479 49.7708 396.812 50.5625C397.146 51.3333 397.604 52.0104 398.188 52.5938C398.771 53.1771 399.458 53.6458 400.25 54C401.042 54.3333 401.885 54.5 402.781 54.5H409.25V63H402.781ZM446.469 63H444.406L441.094 58.4062C440.281 59.1354 439.417 59.8229 438.5 60.4688C437.604 61.0938 436.656 61.6458 435.656 62.125C434.656 62.5833 433.625 62.9479 432.562 63.2188C431.521 63.4896 430.458 63.625 429.375 63.625C427.021 63.625 424.802 63.2292 422.719 62.4375C420.656 61.6458 418.844 60.5 417.281 59C415.74 57.4792 414.521 55.625 413.625 53.4375C412.729 51.25 412.281 48.7604 412.281 45.9688C412.281 43.3646 412.729 40.9792 413.625 38.8125C414.521 36.625 415.74 34.75 417.281 33.1875C418.844 31.625 420.656 30.4167 422.719 29.5625C424.802 28.6875 427.021 28.25 429.375 28.25C430.458 28.25 431.531 28.3854 432.594 28.6562C433.656 28.9271 434.688 29.3021 435.688 29.7812C436.688 30.2604 437.635 30.8229 438.531 31.4688C439.448 32.1146 440.302 32.8125 441.094 33.5625L444.406 29.5938H446.469V63ZM437.875 45.9688C437.875 44.8021 437.646 43.6771 437.188 42.5938C436.75 41.4896 436.146 40.5208 435.375 39.6875C434.604 38.8333 433.698 38.1562 432.656 37.6562C431.635 37.1354 430.542 36.875 429.375 36.875C428.208 36.875 427.104 37.0729 426.062 37.4688C425.042 37.8646 424.146 38.4479 423.375 39.2188C422.625 39.9896 422.031 40.9479 421.594 42.0938C421.156 43.2188 420.938 44.5104 420.938 45.9688C420.938 47.4271 421.156 48.7292 421.594 49.875C422.031 51 422.625 51.9479 423.375 52.7188C424.146 53.4896 425.042 54.0729 426.062 54.4688C427.104 54.8646 428.208 55.0625 429.375 55.0625C430.542 55.0625 431.635 54.8125 432.656 54.3125C433.698 53.7917 434.604 53.1146 435.375 52.2812C436.146 51.4271 436.75 50.4583 437.188 49.375C437.646 48.2708 437.875 47.1354 437.875 45.9688ZM461.594 63H453V16.2188H461.594V63Z" fill="#6135FF"/>
</svg>
