<svg width="359" height="62" viewBox="0 0 359 62" fill="none" xmlns="http://www.w3.org/2000/svg">
<path d="M38.8125 44.4688C36.7292 46.2396 34.4062 47.6042 31.8438 48.5625C29.2812 49.5 26.6146 49.9688 23.8438 49.9688C21.7188 49.9688 19.6667 49.6875 17.6875 49.125C15.7292 48.5833 13.8958 47.8125 12.1875 46.8125C10.4792 45.7917 8.91667 44.5833 7.5 43.1875C6.08333 41.7708 4.875 40.2083 3.875 38.5C2.875 36.7708 2.09375 34.9167 1.53125 32.9375C0.989583 30.9583 0.71875 28.9062 0.71875 26.7812C0.71875 24.6562 0.989583 22.6146 1.53125 20.6562C2.09375 18.6979 2.875 16.8646 3.875 15.1562C4.875 13.4271 6.08333 11.8646 7.5 10.4688C8.91667 9.05208 10.4792 7.84375 12.1875 6.84375C13.8958 5.84375 15.7292 5.07292 17.6875 4.53125C19.6667 3.96875 21.7188 3.6875 23.8438 3.6875C26.6146 3.6875 29.2812 4.16667 31.8438 5.125C34.4062 6.0625 36.7292 7.41667 38.8125 9.1875L34.125 17C32.7708 15.625 31.2083 14.5521 29.4375 13.7812C27.6667 12.9896 25.8021 12.5938 23.8438 12.5938C21.8854 12.5938 20.0417 12.9688 18.3125 13.7188C16.6042 14.4688 15.1042 15.4896 13.8125 16.7812C12.5208 18.0521 11.5 19.5521 10.75 21.2812C10 22.9896 9.625 24.8229 9.625 26.7812C9.625 28.7604 10 30.6146 10.75 32.3438C11.5 34.0729 12.5208 35.5833 13.8125 36.875C15.1042 38.1667 16.6042 39.1875 18.3125 39.9375C20.0417 40.6875 21.8854 41.0625 23.8438 41.0625C24.9688 41.0625 26.0625 40.9271 27.125 40.6562C28.1875 40.3854 29.1979 40.0104 30.1562 39.5312V26.7812H38.8125V44.4688ZM77.1562 31.9688C77.1562 34.4688 76.7083 36.8021 75.8125 38.9688C74.9167 41.1146 73.6979 42.9792 72.1562 44.5625C70.6146 46.125 68.8021 47.3646 66.7188 48.2812C64.6562 49.1771 62.4375 49.625 60.0625 49.625C57.7083 49.625 55.4896 49.1771 53.4062 48.2812C51.3438 47.3646 49.5312 46.125 47.9688 44.5625C46.4271 42.9792 45.2083 41.1146 44.3125 38.9688C43.4167 36.8021 42.9688 34.4688 42.9688 31.9688C42.9688 29.4271 43.4167 27.0729 44.3125 24.9062C45.2083 22.7396 46.4271 20.875 47.9688 19.3125C49.5312 17.7292 51.3438 16.4896 53.4062 15.5938C55.4896 14.6979 57.7083 14.25 60.0625 14.25C62.4375 14.25 64.6562 14.6771 66.7188 15.5312C68.8021 16.3646 70.6146 17.5625 72.1562 19.125C73.6979 20.6667 74.9167 22.5312 75.8125 24.7188C76.7083 26.8854 77.1562 29.3021 77.1562 31.9688ZM68.5625 31.9688C68.5625 30.5938 68.3333 29.3542 67.875 28.25C67.4375 27.125 66.8333 26.1667 66.0625 25.375C65.2917 24.5625 64.3854 23.9479 63.3438 23.5312C62.3229 23.0938 61.2292 22.875 60.0625 22.875C58.8958 22.875 57.7917 23.0938 56.75 23.5312C55.7292 23.9479 54.8333 24.5625 54.0625 25.375C53.3125 26.1667 52.7188 27.125 52.2812 28.25C51.8438 29.3542 51.625 30.5938 51.625 31.9688C51.625 33.2604 51.8438 34.4583 52.2812 35.5625C52.7188 36.6667 53.3125 37.625 54.0625 38.4375C54.8333 39.25 55.7292 39.8958 56.75 40.375C57.7917 40.8333 58.8958 41.0625 60.0625 41.0625C61.2292 41.0625 62.3229 40.8438 63.3438 40.4062C64.3854 39.9688 65.2917 39.3542 66.0625 38.5625C66.8333 37.7708 67.4375 36.8125 67.875 35.6875C68.3333 34.5625 68.5625 33.3229 68.5625 31.9688ZM91.9375 6.4375C91.9375 7.22917 91.7812 7.96875 91.4688 8.65625C91.1771 9.34375 90.7708 9.94792 90.25 10.4688C89.7292 10.9688 89.1146 11.375 88.4062 11.6875C87.7188 11.9792 86.9792 12.125 86.1875 12.125C85.3958 12.125 84.6458 11.9792 83.9375 11.6875C83.25 11.375 82.6458 10.9688 82.125 10.4688C81.625 9.94792 81.2188 9.34375 80.9062 8.65625C80.6146 7.96875 80.4688 7.22917 80.4688 6.4375C80.4688 5.66667 80.6146 4.9375 80.9062 4.25C81.2188 3.54167 81.625 2.9375 82.125 2.4375C82.6458 1.91667 83.25 1.51042 83.9375 1.21875C84.6458 0.90625 85.3958 0.75 86.1875 0.75C86.9792 0.75 87.7188 0.90625 88.4062 1.21875C89.1146 1.51042 89.7292 1.91667 90.25 2.4375C90.7708 2.9375 91.1771 3.54167 91.4688 4.25C91.7812 4.9375 91.9375 5.66667 91.9375 6.4375ZM90.4688 49H81.875V15.5312H90.4688V49ZM105.531 49H97V15.5312H99.0625L101.875 18.7812C103.25 17.5312 104.802 16.5729 106.531 15.9062C108.281 15.2188 110.104 14.875 112 14.875C114.042 14.875 115.969 15.2708 117.781 16.0625C119.594 16.8333 121.177 17.9062 122.531 19.2812C123.885 20.6354 124.948 22.2292 125.719 24.0625C126.51 25.875 126.906 27.8125 126.906 29.875V49H118.375V29.875C118.375 29 118.208 28.1771 117.875 27.4062C117.542 26.6146 117.083 25.9271 116.5 25.3438C115.917 24.7604 115.24 24.3021 114.469 23.9688C113.698 23.6354 112.875 23.4688 112 23.4688C111.104 23.4688 110.26 23.6354 109.469 23.9688C108.677 24.3021 107.99 24.7604 107.406 25.3438C106.823 25.9271 106.365 26.6146 106.031 27.4062C105.698 28.1771 105.531 29 105.531 29.875V49ZM156.812 31.9688C156.812 30.8021 156.583 29.6771 156.125 28.5938C155.688 27.4896 155.083 26.5208 154.312 25.6875C153.542 24.8333 152.635 24.1562 151.594 23.6562C150.573 23.1354 149.479 22.875 148.312 22.875C147.146 22.875 146.042 23.0729 145 23.4688C143.979 23.8646 143.083 24.4479 142.312 25.2188C141.562 25.9896 140.969 26.9479 140.531 28.0938C140.094 29.2188 139.875 30.5104 139.875 31.9688C139.875 33.3646 140.094 34.625 140.531 35.75C140.969 36.8542 141.562 37.8021 142.312 38.5938C143.083 39.3854 143.979 40 145 40.4375C146.042 40.8542 147.146 41.0625 148.312 41.0625C149.479 41.0625 150.573 40.8125 151.594 40.3125C152.635 39.7917 153.542 39.1146 154.312 38.2812C155.083 37.4271 155.688 36.4583 156.125 35.375C156.583 34.2708 156.812 33.1354 156.812 31.9688ZM165.406 44.7812C165.406 47.1354 164.958 49.3438 164.062 51.4062C163.167 53.4688 161.938 55.2708 160.375 56.8125C158.833 58.3542 157.021 59.5729 154.938 60.4688C152.875 61.3646 150.667 61.8125 148.312 61.8125L144.031 61.75V53.2188L148.25 53.2812C149.583 53.2812 150.719 53.1042 151.656 52.75C152.594 52.4167 153.385 51.9479 154.031 51.3438C154.677 50.7604 155.188 50.0833 155.562 49.3125C155.958 48.5417 156.271 47.7292 156.5 46.875C156.167 47.4167 155.688 47.8646 155.062 48.2188C154.438 48.5521 153.74 48.8229 152.969 49.0312C152.219 49.2604 151.427 49.4167 150.594 49.5C149.781 49.5833 149.021 49.625 148.312 49.625C145.958 49.625 143.74 49.2188 141.656 48.4062C139.594 47.5938 137.781 46.4375 136.219 44.9375C134.677 43.4167 133.458 41.5625 132.562 39.375C131.667 37.1875 131.219 34.7188 131.219 31.9688C131.219 29.4479 131.667 27.1042 132.562 24.9375C133.458 22.7708 134.677 20.8958 136.219 19.3125C137.781 17.7292 139.594 16.4896 141.656 15.5938C143.74 14.6979 145.958 14.25 148.312 14.25C149.396 14.25 150.469 14.3854 151.531 14.6562C152.594 14.9271 153.625 15.3021 154.625 15.7812C155.625 16.2604 156.573 16.8229 157.469 17.4688C158.385 18.1146 159.24 18.8125 160.031 19.5625L163.344 15.5938H165.406V44.7812Z" fill="black"/>
<path d="M208.75 26.5938C208.75 28.6562 208.479 30.6458 207.938 32.5625C207.417 34.4583 206.667 36.2396 205.688 37.9062C204.708 39.5521 203.542 41.0625 202.188 42.4375C200.833 43.7917 199.323 44.9583 197.656 45.9375C195.99 46.9167 194.198 47.6771 192.281 48.2188C190.385 48.7396 188.406 49 186.344 49H172.844V4.1875H186.344C188.406 4.1875 190.385 4.45833 192.281 5C194.198 5.52083 195.99 6.27083 197.656 7.25C199.323 8.22917 200.833 9.40625 202.188 10.7812C203.542 12.1354 204.708 13.6458 205.688 15.3125C206.667 16.9583 207.417 18.7396 207.938 20.6562C208.479 22.5521 208.75 24.5312 208.75 26.5938ZM199.781 26.5938C199.781 24.7396 199.427 23 198.719 21.375C198.031 19.75 197.073 18.3333 195.844 17.125C194.635 15.8958 193.208 14.9271 191.562 14.2188C189.938 13.5104 188.198 13.1562 186.344 13.1562H181.875V40.0312H186.344C188.198 40.0312 189.938 39.6875 191.562 39C193.208 38.2917 194.635 37.3333 195.844 36.125C197.073 34.8958 198.031 33.4688 198.719 31.8438C199.427 30.1979 199.781 28.4479 199.781 26.5938ZM223.875 6.4375C223.875 7.22917 223.719 7.96875 223.406 8.65625C223.115 9.34375 222.708 9.94792 222.188 10.4688C221.667 10.9688 221.052 11.375 220.344 11.6875C219.656 11.9792 218.917 12.125 218.125 12.125C217.333 12.125 216.583 11.9792 215.875 11.6875C215.188 11.375 214.583 10.9688 214.062 10.4688C213.562 9.94792 213.156 9.34375 212.844 8.65625C212.552 7.96875 212.406 7.22917 212.406 6.4375C212.406 5.66667 212.552 4.9375 212.844 4.25C213.156 3.54167 213.562 2.9375 214.062 2.4375C214.583 1.91667 215.188 1.51042 215.875 1.21875C216.583 0.90625 217.333 0.75 218.125 0.75C218.917 0.75 219.656 0.90625 220.344 1.21875C221.052 1.51042 221.667 1.91667 222.188 2.4375C222.708 2.9375 223.115 3.54167 223.406 4.25C223.719 4.9375 223.875 5.66667 223.875 6.4375ZM222.406 49H213.812V15.5312H222.406V49ZM252.75 31.9688C252.75 30.8021 252.521 29.6771 252.062 28.5938C251.625 27.4896 251.021 26.5208 250.25 25.6875C249.479 24.8333 248.573 24.1562 247.531 23.6562C246.51 23.1354 245.417 22.875 244.25 22.875C243.083 22.875 241.979 23.0729 240.938 23.4688C239.917 23.8646 239.021 24.4479 238.25 25.2188C237.5 25.9896 236.906 26.9479 236.469 28.0938C236.031 29.2188 235.812 30.5104 235.812 31.9688C235.812 33.3646 236.031 34.625 236.469 35.75C236.906 36.8542 237.5 37.8021 238.25 38.5938C239.021 39.3854 239.917 40 240.938 40.4375C241.979 40.8542 243.083 41.0625 244.25 41.0625C245.417 41.0625 246.51 40.8125 247.531 40.3125C248.573 39.7917 249.479 39.1146 250.25 38.2812C251.021 37.4271 251.625 36.4583 252.062 35.375C252.521 34.2708 252.75 33.1354 252.75 31.9688ZM261.344 44.7812C261.344 47.1354 260.896 49.3438 260 51.4062C259.104 53.4688 257.875 55.2708 256.312 56.8125C254.771 58.3542 252.958 59.5729 250.875 60.4688C248.812 61.3646 246.604 61.8125 244.25 61.8125L239.969 61.75V53.2188L244.188 53.2812C245.521 53.2812 246.656 53.1042 247.594 52.75C248.531 52.4167 249.323 51.9479 249.969 51.3438C250.615 50.7604 251.125 50.0833 251.5 49.3125C251.896 48.5417 252.208 47.7292 252.438 46.875C252.104 47.4167 251.625 47.8646 251 48.2188C250.375 48.5521 249.677 48.8229 248.906 49.0312C248.156 49.2604 247.365 49.4167 246.531 49.5C245.719 49.5833 244.958 49.625 244.25 49.625C241.896 49.625 239.677 49.2188 237.594 48.4062C235.531 47.5938 233.719 46.4375 232.156 44.9375C230.615 43.4167 229.396 41.5625 228.5 39.375C227.604 37.1875 227.156 34.7188 227.156 31.9688C227.156 29.4479 227.604 27.1042 228.5 24.9375C229.396 22.7708 230.615 20.8958 232.156 19.3125C233.719 17.7292 235.531 16.4896 237.594 15.5938C239.677 14.6979 241.896 14.25 244.25 14.25C245.333 14.25 246.406 14.3854 247.469 14.6562C248.531 14.9271 249.562 15.3021 250.562 15.7812C251.562 16.2604 252.51 16.8229 253.406 17.4688C254.323 18.1146 255.177 18.8125 255.969 19.5625L259.281 15.5938H261.344V44.7812ZM277.938 6.4375C277.938 7.22917 277.781 7.96875 277.469 8.65625C277.177 9.34375 276.771 9.94792 276.25 10.4688C275.729 10.9688 275.115 11.375 274.406 11.6875C273.719 11.9792 272.979 12.125 272.188 12.125C271.396 12.125 270.646 11.9792 269.938 11.6875C269.25 11.375 268.646 10.9688 268.125 10.4688C267.625 9.94792 267.219 9.34375 266.906 8.65625C266.615 7.96875 266.469 7.22917 266.469 6.4375C266.469 5.66667 266.615 4.9375 266.906 4.25C267.219 3.54167 267.625 2.9375 268.125 2.4375C268.646 1.91667 269.25 1.51042 269.938 1.21875C270.646 0.90625 271.396 0.75 272.188 0.75C272.979 0.75 273.719 0.90625 274.406 1.21875C275.115 1.51042 275.729 1.91667 276.25 2.4375C276.771 2.9375 277.177 3.54167 277.469 4.25C277.781 4.9375 277.938 5.66667 277.938 6.4375ZM276.469 49H267.875V15.5312H276.469V49ZM299.781 49C297.719 49 295.781 48.6146 293.969 47.8438C292.156 47.0521 290.562 45.9792 289.188 44.625C287.833 43.25 286.76 41.6562 285.969 39.8438C285.198 38.0312 284.812 36.0938 284.812 34.0312V24.0938H280.656V15.5938H284.812V2.21875H293.312V15.5938H306.25V24.0938H293.312V34.0312C293.312 34.9271 293.479 35.7708 293.812 36.5625C294.146 37.3333 294.604 38.0104 295.188 38.5938C295.771 39.1771 296.458 39.6458 297.25 40C298.042 40.3333 298.885 40.5 299.781 40.5H306.25V49H299.781ZM343.469 49H341.406L338.094 44.4062C337.281 45.1354 336.417 45.8229 335.5 46.4688C334.604 47.0938 333.656 47.6458 332.656 48.125C331.656 48.5833 330.625 48.9479 329.562 49.2188C328.521 49.4896 327.458 49.625 326.375 49.625C324.021 49.625 321.802 49.2292 319.719 48.4375C317.656 47.6458 315.844 46.5 314.281 45C312.74 43.4792 311.521 41.625 310.625 39.4375C309.729 37.25 309.281 34.7604 309.281 31.9688C309.281 29.3646 309.729 26.9792 310.625 24.8125C311.521 22.625 312.74 20.75 314.281 19.1875C315.844 17.625 317.656 16.4167 319.719 15.5625C321.802 14.6875 324.021 14.25 326.375 14.25C327.458 14.25 328.531 14.3854 329.594 14.6562C330.656 14.9271 331.688 15.3021 332.688 15.7812C333.688 16.2604 334.635 16.8229 335.531 17.4688C336.448 18.1146 337.302 18.8125 338.094 19.5625L341.406 15.5938H343.469V49ZM334.875 31.9688C334.875 30.8021 334.646 29.6771 334.188 28.5938C333.75 27.4896 333.146 26.5208 332.375 25.6875C331.604 24.8333 330.698 24.1562 329.656 23.6562C328.635 23.1354 327.542 22.875 326.375 22.875C325.208 22.875 324.104 23.0729 323.062 23.4688C322.042 23.8646 321.146 24.4479 320.375 25.2188C319.625 25.9896 319.031 26.9479 318.594 28.0938C318.156 29.2188 317.938 30.5104 317.938 31.9688C317.938 33.4271 318.156 34.7292 318.594 35.875C319.031 37 319.625 37.9479 320.375 38.7188C321.146 39.4896 322.042 40.0729 323.062 40.4688C324.104 40.8646 325.208 41.0625 326.375 41.0625C327.542 41.0625 328.635 40.8125 329.656 40.3125C330.698 39.7917 331.604 39.1146 332.375 38.2812C333.146 37.4271 333.75 36.4583 334.188 35.375C334.646 34.2708 334.875 33.1354 334.875 31.9688ZM358.594 49H350V2.21875H358.594V49Z" fill="#6135FF"/>
</svg>
